<svg xmlns="http://www.w3.org/2000/svg" width="350" height="350" viewBox="0 0 350 350" fill="none">
  <path d="M16.7045 152.727C7.95455 152.727 0 145.568 0 136.023V16.7045C0 7.15909 7.15909 0 16.7045 0H136.818C145.568 0 153.523 7.15909 153.523 16.7045V136.818C153.523 145.568 146.364 153.523 136.818 153.523H16.7045V152.727ZM213.182 152.727C204.432 152.727 196.477 145.568 196.477 136.023V16.7045C196.477 7.95455 203.636 0 213.182 0H333.295C342.841 0 350 7.15909 350 16.7045V136.818C350 145.568 342.841 153.523 333.295 153.523H213.182V152.727ZM16.7045 350C7.15909 350 0 342.841 0 333.295V213.182C0 204.432 7.15909 196.477 16.7045 196.477H136.818C145.568 196.477 153.523 203.636 153.523 213.182V333.295C153.523 342.045 146.364 350 136.818 350H16.7045ZM213.182 350C204.432 350 196.477 342.841 196.477 333.295V213.182C196.477 204.432 203.636 196.477 213.182 196.477H333.295C342.045 196.477 350 203.636 350 213.182V333.295C350 342.045 342.841 350 333.295 350H213.182Z" fill="#6268FF" fill-opacity="0.1"/>
</svg>