<svg xmlns="http://www.w3.org/2000/svg" width="30" height="30" viewBox="0 0 30 30" fill="none">
  <circle cx="15" cy="15" r="15" fill="#D9D9D9" fill-opacity="0.2"/>
  <path d="M18.8399 24C16.5375 24 14.6733 22.1152 14.6733 19.7872C14.6733 17.4592 16.5375 15.5777 18.8367 15.5777C21.1358 15.5777 23 17.4626 23 19.7872C23 22.1118 21.1391 24 18.8399 24ZM18.8399 17.0591C17.3486 17.0591 16.1385 18.2826 16.1385 19.7905C16.1385 21.2984 17.3486 22.5219 18.8399 22.5219C20.3313 22.5219 21.5414 21.2984 21.5414 19.7905C21.5414 18.2826 20.3313 17.0591 18.8399 17.0591ZM12.3219 23.6065H7.46845C6.66064 23.6065 6 22.9385 6 22.1218V17.2212C6 16.4044 6.66064 15.7364 7.46845 15.7364H12.3219C13.1297 15.7364 13.7903 16.4044 13.7903 17.2212V22.1218C13.7903 22.9385 13.1297 23.6065 12.3219 23.6065ZM12.3644 17.413C12.3644 17.2807 12.2597 17.1749 12.1289 17.1749H7.66468C7.53386 17.1749 7.4292 17.2807 7.4292 17.413V21.9267C7.4292 22.0589 7.53386 22.1648 7.66468 22.1648H12.1289C12.2597 22.1648 12.3644 22.0589 12.3644 21.9267V17.413ZM12.3219 14.8701H7.46845C6.66064 14.8701 6 14.2021 6 13.3853V8.48473C6 7.66796 6.66064 7 7.46845 7H12.3219C13.1297 7 13.7903 7.66796 13.7903 8.48473V13.3853C13.7903 14.2021 13.1297 14.8701 12.3219 14.8701ZM12.3644 8.67652C12.3644 8.54425 12.2597 8.43843 12.1289 8.43843H7.66468C7.53386 8.43843 7.4292 8.54425 7.4292 8.67652V13.1902C7.4292 13.3225 7.53386 13.4283 7.66468 13.4283H12.1289C12.2597 13.4283 12.3644 13.3225 12.3644 13.1902V8.67652ZM21.2634 15.042H16.4132C15.6054 15.042 14.9448 14.3741 14.9448 13.5573V8.65668C14.9448 7.83991 15.6054 7.17195 16.4132 7.17195H21.2666C22.0745 7.17195 22.7351 7.83991 22.7351 8.65668V13.5573C22.7351 14.3741 22.0745 15.042 21.2634 15.042ZM21.3059 8.85178C21.3059 8.71951 21.2012 8.61369 21.0704 8.61369H16.6062C16.4754 8.61369 16.3707 8.71951 16.3707 8.85178V13.3655C16.3707 13.4978 16.4754 13.6036 16.6062 13.6036H21.0704C21.2012 13.6036 21.3059 13.4978 21.3059 13.3655V8.85178Z" fill="#6268FF" fill-opacity="0.5"/>
</svg>