<svg xmlns="http://www.w3.org/2000/svg" width="30" height="30" viewBox="0 0 30 30" fill="none">
  <circle cx="15" cy="15" r="15" fill="#D9D9D9" fill-opacity="0.2"/>
  <path d="M22.4545 12.9545H20.9091V11.4091C20.9091 9.97451 20.3392 8.59869 19.3248 7.58429C18.3104 6.56988 16.9346 6 15.5 6C14.0654 6 12.6896 6.56988 11.6752 7.58429C10.6608 8.59869 10.0909 9.97451 10.0909 11.4091V12.9545H8.54545C8.13571 12.955 7.74288 13.118 7.45315 13.4077C7.16342 13.6974 7.00045 14.0903 7 14.5V17.5909C7.00045 18.0007 7.16342 18.3935 7.45315 18.6832C7.74288 18.9729 8.13571 19.1359 8.54545 19.1364H10.4773C10.5797 19.1364 10.678 19.0957 10.7505 19.0232C10.8229 18.9507 10.8636 18.8525 10.8636 18.75V11.4091C10.8636 8.85257 12.9435 6.77273 15.5 6.77273C18.0565 6.77273 20.1364 8.85257 20.1364 11.4091V18.3636C20.1364 20.068 18.7498 21.4545 17.0455 21.4545H16.9792C16.899 21.2287 16.751 21.0332 16.5553 20.8949C16.3597 20.7565 16.126 20.6821 15.8864 20.6818H15.1136C14.8062 20.6818 14.5114 20.8039 14.294 21.0213C14.0767 21.2387 13.9545 21.5335 13.9545 21.8409C13.9545 22.1483 14.0767 22.4431 14.294 22.6605C14.5114 22.8779 14.8062 23 15.1136 23H15.8864C16.126 22.9997 16.3597 22.9253 16.5553 22.787C16.751 22.6486 16.899 22.4531 16.9792 22.2273H17.0455C17.936 22.2269 18.7992 21.9192 19.4892 21.3561C20.1791 20.7929 20.6535 20.0088 20.8322 19.1364H22.4545C22.8643 19.1359 23.2571 18.9729 23.5469 18.6832C23.8366 18.3935 23.9996 18.0007 24 17.5909V14.5C23.9996 14.0903 23.8366 13.6974 23.5469 13.4077C23.2571 13.118 22.8643 12.955 22.4545 12.9545Z" fill="#6268FF" fill-opacity="0.5"/>
</svg>